<svg xmlns="http://www.w3.org/2000/svg" width="24" height="24" id="add"><g transform="translate(0 -1028.362)"><circle cx="12" cy="1040.362" r="12" fill="#50b748"></circle><path style="line-height:normal;text-indent:0;text-align:start;text-decoration-line:none;text-transform:none;block-progression:tb" fill="#10a711" d="M14.521 23.717a12 12 0 0 0 .69-.154 12 12 0 0 0 1.137-.38 12 12 0 0 0 1.095-.488 12 12 0 0 0 1.041-.597 12 12 0 0 0 .975-.698 12 12 0 0 0 .902-.793 12 12 0 0 0 .817-.877 12 12 0 0 0 .726-.955 12 12 0 0 0 .627-1.021 12 12 0 0 0 .522-1.08 12 12 0 0 0 .412-1.127 12 12 0 0 0 .26-1.018l-7.127-7.127A6.479 6.479 0 0 0 12 5.5 6.492 6.492 0 0 0 5.5 12c0 1.798.727 3.422 1.902 4.598l7.12 7.119z" color="#000" font-family="sans-serif" font-weight="400" transform="translate(0 1028.362)"></path><path style="line-height:normal;text-indent:0;text-align:start;text-decoration-line:none;text-transform:none;block-progression:tb" fill="#fff" d="M8.5 2C12.096 2 15 4.904 15 8.5S12.096 15 8.5 15a6.492 6.492 0 0 1-6.467-7.166A6.492 6.492 0 0 1 8.5 2Zm-.008 2.494A.52.52 0 0 0 8 5v3H5a.52.52 0 0 0-.507.5A.52.52 0 0 0 5 9h3v3a.52.52 0 0 0 .5.507A.52.52 0 0 0 9 12V9h3a.52.52 0 0 0 .507-.5A.52.52 0 0 0 12 8H9V5a.52.52 0 0 0-.508-.506Z" color="#000" font-family="sans-serif" font-weight="400" overflow="visible" transform="translate(3.5 1031.862)"></path></g></svg>